{"title":"The Chemical Brothers.Dont Think Live.2012.BRRip.XviD.AbSurdiTy","uid":7153731,"size":736700291,"categoryP":"video","categoryS":"movies","magnet":"?xt=urn:btih:b760b099cf079868e8be4db852b19eef9f8e16a5&amp;dn=The+Chemical+Brothers.Dont+Think+Live.2012.BRRip.XviD.AbSurdiTy&amp;tr=udp%3A%2F%2Ftracker.openbittorrent.com%3A80&amp;tr=udp%3A%2F%2Fopen.demonii.com%3A1337&amp;tr=udp%3A%2F%2Ftracker.coppersurfer.tk%3A6969&amp;tr=udp%3A%2F%2Fexodus.desync.com%3A6969","seeders":5,"leechers":1,"uploader":"HeroMaster","files":-1,"time":1333394928,"description":"The Chemical Brothers.Dont Think Live.2012.BRRip.XviD.AbSurdiTy\n\n &lt;a href=&quot;\nhttp://www.imdb.com/title/tt2137916/&quot; rel=&quot;nofollow&quot; target=&quot;_NEW&quot;&gt;\nhttp://www.imdb.com/title/tt2137916/&lt;/a&gt;\n\n\nFormat : AVI\nFormat/Info : Audio Video Interleave\nFile size : 703 MiB\nDuration : 1h 27mn\nOverall bit rate : 1 121 Kbps\nWriting library : VirtualDub build 34703/release\n\nVideo\nID : 0\nFormat : MPEG-4 Visual\nFormat profile : Advanced Simple@L5\nFormat settings, BVOP : 4\nFormat settings, QPel : No\nFormat settings, GMC : No warppoints\nFormat settings, Matrix : Default (H.263)\nMuxing mode : Packed bitstream\nCodec ID : XVID\nCodec ID/Hint : XviD\nDuration : 1h 27mn\nBit rate : 982 Kbps\nWidth : 656 pixels\nHeight : 368 pixels\nDisplay aspect ratio : 16:9\nFrame rate : 29.970 fps\nColor space : YUV\nChroma subsampling : 4:2:0\nBit depth : 8 bits\nScan type : Progressive\nCompression mode : Lossy\nBits/(Pixel*Frame) : 0.136\nStream size : 615 MiB (88%)\nWriting library : XviD 64\n\nAudio\nID : 1\nFormat : MPEG Audio\nFormat version : Version 1\nFormat profile : Layer 3\nCodec ID : 55\nCodec ID/Hint : MP3\nDuration : 1h 27mn\nBit rate mode : Constant\nBit rate : 128 Kbps\nChannel(s) : 2 channels\nSampling rate : 48.0 KHz\nCompression mode : Lossy\nStream size : 80.2 MiB (11%)\nAlignment : Split accross interleaves\nInterleave, duration : 33 ms (1.00 video frame)\nInterleave, preload duration : 500 ms\nWriting library : LAMELAME_MAJOR_VERSI\n\n\nPoster:\n\n &lt;a href=&quot;\nhttp://i.imgur.com/UQdYt.jpg&quot; rel=&quot;nofollow&quot; target=&quot;_NEW&quot;&gt;\nhttp://i.imgur.com/UQdYt.jpg&lt;/a&gt;\n\n\nScreens:\n\n &lt;a href=&quot;\nhttp://i.imgur.com/E6QSL.png&quot; rel=&quot;nofollow&quot; target=&quot;_NEW&quot;&gt;\nhttp://i.imgur.com/E6QSL.png&lt;/a&gt;\n\n &lt;a href=&quot;\nhttp://i.imgur.com/0wqji.png&quot; rel=&quot;nofollow&quot; target=&quot;_NEW&quot;&gt;\nhttp://i.imgur.com/0wqji.png&lt;/a&gt;\n\n &lt;a href=&quot;\nhttp://i.imgur.com/3XssK.png&quot; rel=&quot;nofollow&quot; target=&quot;_NEW&quot;&gt;\nhttp://i.imgur.com/3XssK.png&lt;/a&gt;\n\n\nENJOY!","torrent":{"xt":"urn:btih:b760b099cf079868e8be4db852b19eef9f8e16a5","amp;dn":"The+Chemical+Brothers.Dont+Think+Live.2012.BRRip.XviD.AbSurdiTy","amp;tr":["udp%3A%2F%2Ftracker.openbittorrent.com%3A80","udp%3A%2F%2Fopen.demonii.com%3A1337","udp%3A%2F%2Ftracker.coppersurfer.tk%3A6969","udp%3A%2F%2Fexodus.desync.com%3A6969"],"infoHash":"b760b099cf079868e8be4db852b19eef9f8e16a5","infoHashBuffer":{"type":"Buffer","data":[183,96,176,153,207,7,152,104,232,190,77,184,82,177,158,239,159,142,22,165]},"announce":[],"urlList":[]}}